<svg width="16" height="20" viewBox="0 0 16 20" fill="none" xmlns="http://www.w3.org/2000/svg">
<path d="M8.75 12.425H8.25V12.925V15.65H7.75V12.925V12.425H7.25H4.5V11.925H7.25H7.75V11.425V8.675H8.25V11.425V11.925H8.75H11.5V12.425H8.75ZM10.275 5.65V1.5V1H9.775H1.5H1V1.5V6.15V18.5V19H1.5H14.5H15V18.5V6.15V5.65H14.5H10.275ZM14.5 19.5H1.5C1.24128 19.5 1.0161 19.409 0.803553 19.1964C0.591009 18.9839 0.5 18.7587 0.5 18.5V1.5C0.5 1.24128 0.591009 1.0161 0.803553 0.803553C1.0161 0.591009 1.24128 0.5 1.5 0.5H10.3179L15.5 5.68211V18.5C15.5 18.7587 15.409 18.9839 15.1964 19.1964C14.9839 19.409 14.7587 19.5 14.5 19.5Z" fill="black" stroke="#1B1C1E"/>
</svg>