<svg width="18" height="19" viewBox="0 0 18 19" fill="none" xmlns="http://www.w3.org/2000/svg">
<path d="M16.9 18.975L10.325 12.4C9.825 12.8333 9.24167 13.1708 8.575 13.4125C7.90833 13.6541 7.2 13.775 6.45 13.775C4.65 13.775 3.125 13.15 1.875 11.9C0.625 10.65 0 9.14164 0 7.37498C0 5.60831 0.625 4.09998 1.875 2.84998C3.125 1.59998 4.64167 0.974976 6.425 0.974976C8.19167 0.974976 9.69583 1.59998 10.9375 2.84998C12.1792 4.09998 12.8 5.60831 12.8 7.37498C12.8 8.09164 12.6833 8.78331 12.45 9.44998C12.2167 10.1166 11.8667 10.7416 11.4 11.325L18 17.875L16.9 18.975ZM6.425 12.275C7.775 12.275 8.925 11.7958 9.875 10.8375C10.825 9.87914 11.3 8.72498 11.3 7.37498C11.3 6.02498 10.825 4.87081 9.875 3.91248C8.925 2.95414 7.775 2.47498 6.425 2.47498C5.05833 2.47498 3.89583 2.95414 2.9375 3.91248C1.97917 4.87081 1.5 6.02498 1.5 7.37498C1.5 8.72498 1.97917 9.87914 2.9375 10.8375C3.89583 11.7958 5.05833 12.275 6.425 12.275Z" fill="#5B5C5E"/>
</svg>